<?xml version="1.0" encoding="utf-8"?>
<!-- Generator: Adobe Illustrator 25.2.3, SVG Export Plug-In . SVG Version: 6.00 Build 0)  -->
<svg version="1.1" xmlns="http://www.w3.org/2000/svg" xmlns:xlink="http://www.w3.org/1999/xlink" x="0px" y="0px"
	 viewBox="0 0 60 20" style="enable-background:new 0 0 60 20;" xml:space="preserve">
<style type="text/css">
	.st0{display:none;}
	.st1{fill:#452777;}
	.st2{fill:none;}
	.st3{fill:#FAB700;}
</style>
<g id="Слой_1" class="st0">
	
		<image style="display:inline;overflow:visible;" width="128" height="48" xlink:href="D0BF3890.jpg"  transform="matrix(0.5638 0 0 0.5671 -4.9444 -3.3889)">
	</image>
</g>
<g id="Слой_2">
	<g>
		<path class="st1" d="M1.5,0h56.9c0,0,3.6,9.8,0,20H1.5C1.5,20-1.8,8.6,1.5,0z"/>
	</g>
</g>
<g id="Слой_3">
	<rect x="6.6" y="7.2" class="st2" width="39.2" height="6.1"/>
	<g>
		<g>
			<path class="st3" d="M7,6.3h1v7.1H7V6.3z M7.6,9.6h2.3c0.2,0,0.4-0.1,0.6-0.2s0.3-0.2,0.4-0.4s0.1-0.4,0.1-0.6
				c0-0.2,0-0.5-0.1-0.6s-0.2-0.3-0.4-0.4S10,7.2,9.8,7.2H7.6V6.3h2.2c0.4,0,0.8,0.1,1.1,0.3s0.6,0.4,0.7,0.8s0.3,0.7,0.3,1.1
				s-0.1,0.8-0.3,1.1s-0.4,0.6-0.7,0.8s-0.7,0.3-1.1,0.3H7.6V9.6z"/>
			<path class="st3" d="M14,6.2h1v7.1h-1V6.2z M14.4,9.4h2.4c0.2,0,0.4,0,0.5-0.1s0.3-0.2,0.3-0.4s0.1-0.4,0.1-0.6s0-0.4-0.1-0.6
				s-0.2-0.3-0.3-0.4S17,7.2,16.8,7.2h-2.4V6.2h2.4c0.4,0,0.8,0.1,1.1,0.3s0.6,0.4,0.7,0.7s0.3,0.7,0.3,1.1s-0.1,0.8-0.3,1.1
				s-0.4,0.6-0.7,0.7s-0.7,0.3-1.1,0.3h-2.4V9.4z M16.3,10.1l1-0.2l1.8,3.4h-1.2L16.3,10.1z"/>
			<path class="st3" d="M21.1,6.3h1v7.1h-1V6.3z M21.6,6.3h4.1v0.9h-4.1V6.3z M21.6,9.4h3.5v0.9h-3.5V9.4z M21.6,12.4h4.1v0.9h-4.1
				V12.4z"/>
			<path class="st3" d="M32.9,6.3h0.9v7.1h-1V8l0,0.3l-1.7,4h-0.7l-1.7-3.9l0-0.4v5.3h-1V6.3h0.9l2.1,4.7L32.9,6.3z"/>
			<path class="st3" d="M37.3,13.4h-1V6.3h1V13.4z"/>
			<path class="st3" d="M40.8,13.1c-0.4-0.2-0.7-0.5-0.9-0.9s-0.3-0.9-0.3-1.4V6.3h1v4.6c0,0.5,0.1,0.9,0.4,1.2s0.6,0.4,1.1,0.4
				c0.5,0,0.8-0.1,1.1-0.4c0.3-0.3,0.4-0.7,0.4-1.2V6.3h1v4.5c0,0.6-0.1,1-0.3,1.4s-0.5,0.7-0.9,0.9c-0.4,0.2-0.8,0.3-1.4,0.3
				C41.6,13.4,41.1,13.3,40.8,13.1z"/>
			<path class="st3" d="M52,6.3H53v7.1h-1V8l0,0.3l-1.7,4h-0.7l-1.7-3.9l0-0.4v5.3h-1V6.3h0.9l2.1,4.7L52,6.3z"/>
		</g>
	</g>
</g>
</svg>
