<?xml version="1.0" encoding="utf-8"?>
<!-- Generator: Adobe Illustrator 25.2.3, SVG Export Plug-In . SVG Version: 6.00 Build 0)  -->
<svg version="1.1" id="FACE" xmlns="http://www.w3.org/2000/svg" xmlns:xlink="http://www.w3.org/1999/xlink" x="0px" y="0px"
	 viewBox="0 0 901 201" style="enable-background:new 0 0 901 201;" xml:space="preserve">
<style type="text/css">
	.st0{fill:#39B54A;stroke:#000000;stroke-miterlimit:10;}
	.st1{stroke:#000000;stroke-miterlimit:10;}
	.st2{stroke:#000000;stroke-width:3;stroke-linecap:round;stroke-linejoin:round;stroke-miterlimit:10;}
	.st3{fill:none;}
	.st4{fill:#FFFFFF;}
</style>
<circle class="st0" cx="101" cy="100" r="98.5"/>
<ellipse transform="matrix(0.1521 -0.9884 0.9884 0.1521 -23.47 107.6431)" class="st0" cx="51" cy="67.5" rx="28" ry="16.5"/>
<path class="st1" d="M52.5,60.5c0,0,2-4,5-4s5,3,5,9s-3,12-8,12s-5-10-5-10s3,0,4-3S52.5,60.5,52.5,60.5z"/>
<ellipse transform="matrix(0.1521 -0.9884 0.9884 0.1521 19.505 185.7352)" class="st0" cx="118" cy="81.5" rx="28" ry="16.5"/>
<path class="st1" d="M119.5,74.5c0,0,2-4,5-4s5,3,5,9s-3,12-8,12s-5-10-5-10s3,0,4-3S119.5,74.5,119.5,74.5z"/>
<path d="M95.5,43.5c0,0,40-46,51,5C146.5,48.5,131.5,25.5,95.5,43.5z"/>
<path d="M68.63,6.94c0,0,3.24,7.09,4.37,11.06c2,7,2,13,2,13s-6.03-11.23-16-12c-13-1-22.76,6.78-22.76,6.78L51,15L68.63,6.94z"/>
<path class="st2" d="M24.5,130.5c0,0,27,7,59,7S167,119,167,119s-53.5,54.5-101.5,50.5C38.14,167.22,24.5,130.5,24.5,130.5z"/>
<path class="st0" d="M43.19,158.82c0,0,19.2-8.9,46.26,8.39C89.44,167.21,58.87,176.13,43.19,158.82z"/>
<g>
	<rect x="261" y="42.67" class="st3" width="619" height="127.33"/>
	<path class="st4" d="M375.28,42.76l-37.23,119.97h-37.53L261.59,42.76h38.81l18.99,65.39c1.29,3.87,2.44,7.68,3.44,11.43L345,42.76
		H375.28z"/>
	<path class="st4" d="M452.31,42.76v119.97h-36.83V42.76H452.31z"/>
	<path class="st4" d="M586.5,133.29v29.44h-84.11V42.76h36.83v90.53H586.5z"/>
	<path class="st4" d="M736.68,162.73h-40.29l-20.74-45.34l-12.44,17.65v27.69h-34.72V42.76h34.72v49.61l33.08-49.61h33.1
		l-30.3,43.91L736.68,162.73z"/>
	<path class="st4" d="M841.83,162.73l-6.78-23.64h-32.14l-7.2,23.64h-29.9l37.04-119.97h38.94l37.63,119.97H841.83z M809.17,112.9
		h19.41l-9.71-34.8L809.17,112.9z"/>
</g>
<g>
</g>
<g>
</g>
<g>
</g>
<g>
</g>
<g>
</g>
<g>
</g>
<g>
</g>
<g>
</g>
<g>
</g>
<g>
</g>
<g>
</g>
<g>
</g>
<g>
</g>
<g>
</g>
<g>
</g>
</svg>
